<mxfile host="app.diagrams.net" modified="2023-08-01T06:31:09.391Z" agent="Mozilla/5.0 (Windows NT 10.0; Win64; x64) AppleWebKit/537.36 (KHTML, like Gecko) Chrome/115.0.0.0 Safari/537.36 Edg/115.0.1901.188" etag="-CcWgtWqrjb6FdPSjDZE" version="21.6.6" type="github">
  <diagram name="第 1 页" id="OGliJOE4tW2DUMZxxRDU">
    <mxGraphModel dx="1379" dy="756" grid="1" gridSize="10" guides="1" tooltips="1" connect="1" arrows="1" fold="1" page="1" pageScale="1" pageWidth="827" pageHeight="1169" math="0" shadow="0">
      <root>
        <mxCell id="0" />
        <mxCell id="1" parent="0" />
        <mxCell id="7R4Kz0LJVm2sexOzA-uK-1" value="Robot" style="shape=umlLifeline;perimeter=lifelinePerimeter;whiteSpace=wrap;html=1;container=1;dropTarget=0;collapsible=0;recursiveResize=0;outlineConnect=0;portConstraint=eastwest;newEdgeStyle={&quot;edgeStyle&quot;:&quot;elbowEdgeStyle&quot;,&quot;elbow&quot;:&quot;vertical&quot;,&quot;curved&quot;:0,&quot;rounded&quot;:0};" parent="1" vertex="1">
          <mxGeometry x="727" y="60" width="100" height="690" as="geometry" />
        </mxCell>
        <mxCell id="7R4Kz0LJVm2sexOzA-uK-2" value="下位机文件管理" style="shape=umlFrame;whiteSpace=wrap;html=1;pointerEvents=0;width=170;height=30;" parent="1" vertex="1">
          <mxGeometry x="10" y="10" width="1040" height="930" as="geometry" />
        </mxCell>
        <mxCell id="7R4Kz0LJVm2sexOzA-uK-3" value="OTA" style="shape=umlLifeline;perimeter=lifelinePerimeter;whiteSpace=wrap;html=1;container=1;dropTarget=0;collapsible=0;recursiveResize=0;outlineConnect=0;portConstraint=eastwest;newEdgeStyle={&quot;edgeStyle&quot;:&quot;elbowEdgeStyle&quot;,&quot;elbow&quot;:&quot;vertical&quot;,&quot;curved&quot;:0,&quot;rounded&quot;:0};" parent="1" vertex="1">
          <mxGeometry x="451" y="60" width="100" height="710" as="geometry" />
        </mxCell>
        <mxCell id="7R4Kz0LJVm2sexOzA-uK-5" value="" style="html=1;points=[];perimeter=orthogonalPerimeter;outlineConnect=0;targetShapes=umlLifeline;portConstraint=eastwest;newEdgeStyle={&quot;edgeStyle&quot;:&quot;elbowEdgeStyle&quot;,&quot;elbow&quot;:&quot;vertical&quot;,&quot;curved&quot;:0,&quot;rounded&quot;:0};" parent="7R4Kz0LJVm2sexOzA-uK-3" vertex="1">
          <mxGeometry x="45" y="70" width="10" height="50" as="geometry" />
        </mxCell>
        <mxCell id="7R4Kz0LJVm2sexOzA-uK-8" value="" style="html=1;points=[];perimeter=orthogonalPerimeter;outlineConnect=0;targetShapes=umlLifeline;portConstraint=eastwest;newEdgeStyle={&quot;edgeStyle&quot;:&quot;elbowEdgeStyle&quot;,&quot;elbow&quot;:&quot;vertical&quot;,&quot;curved&quot;:0,&quot;rounded&quot;:0};" parent="7R4Kz0LJVm2sexOzA-uK-3" vertex="1">
          <mxGeometry x="55" y="90" width="10" height="20" as="geometry" />
        </mxCell>
        <mxCell id="7R4Kz0LJVm2sexOzA-uK-9" value="self call" style="html=1;align=left;spacingLeft=2;endArrow=block;rounded=0;edgeStyle=orthogonalEdgeStyle;curved=0;rounded=0;" parent="7R4Kz0LJVm2sexOzA-uK-3" target="7R4Kz0LJVm2sexOzA-uK-8" edge="1">
          <mxGeometry relative="1" as="geometry">
            <mxPoint x="56" y="70" as="sourcePoint" />
            <Array as="points">
              <mxPoint x="56" y="70" />
              <mxPoint x="86" y="70" />
              <mxPoint x="86" y="100" />
            </Array>
          </mxGeometry>
        </mxCell>
        <mxCell id="7R4Kz0LJVm2sexOzA-uK-22" value="" style="html=1;points=[];perimeter=orthogonalPerimeter;outlineConnect=0;targetShapes=umlLifeline;portConstraint=eastwest;newEdgeStyle={&quot;edgeStyle&quot;:&quot;elbowEdgeStyle&quot;,&quot;elbow&quot;:&quot;vertical&quot;,&quot;curved&quot;:0,&quot;rounded&quot;:0};" parent="7R4Kz0LJVm2sexOzA-uK-3" vertex="1">
          <mxGeometry x="45" y="340" width="10" height="80" as="geometry" />
        </mxCell>
        <mxCell id="7R4Kz0LJVm2sexOzA-uK-23" value="" style="html=1;points=[];perimeter=orthogonalPerimeter;outlineConnect=0;targetShapes=umlLifeline;portConstraint=eastwest;newEdgeStyle={&quot;edgeStyle&quot;:&quot;elbowEdgeStyle&quot;,&quot;elbow&quot;:&quot;vertical&quot;,&quot;curved&quot;:0,&quot;rounded&quot;:0};" parent="7R4Kz0LJVm2sexOzA-uK-3" vertex="1">
          <mxGeometry x="55" y="350" width="10" height="40" as="geometry" />
        </mxCell>
        <mxCell id="7R4Kz0LJVm2sexOzA-uK-24" value="self call" style="html=1;align=left;spacingLeft=2;endArrow=block;rounded=0;edgeStyle=orthogonalEdgeStyle;curved=0;rounded=0;" parent="7R4Kz0LJVm2sexOzA-uK-3" source="7R4Kz0LJVm2sexOzA-uK-23" target="7R4Kz0LJVm2sexOzA-uK-23" edge="1">
          <mxGeometry relative="1" as="geometry">
            <mxPoint x="50" y="400" as="sourcePoint" />
            <Array as="points">
              <mxPoint x="80" y="350" />
              <mxPoint x="80" y="370" />
            </Array>
          </mxGeometry>
        </mxCell>
        <mxCell id="k5PXEWsf904mykeDzKS9-2" value="" style="html=1;points=[];perimeter=orthogonalPerimeter;outlineConnect=0;targetShapes=umlLifeline;portConstraint=eastwest;newEdgeStyle={&quot;edgeStyle&quot;:&quot;elbowEdgeStyle&quot;,&quot;elbow&quot;:&quot;vertical&quot;,&quot;curved&quot;:0,&quot;rounded&quot;:0};" parent="7R4Kz0LJVm2sexOzA-uK-3" vertex="1">
          <mxGeometry x="45" y="160" width="10" height="30" as="geometry" />
        </mxCell>
        <mxCell id="7R4Kz0LJVm2sexOzA-uK-4" value="Cleaning Cloud" style="shape=umlLifeline;perimeter=lifelinePerimeter;whiteSpace=wrap;html=1;container=1;dropTarget=0;collapsible=0;recursiveResize=0;outlineConnect=0;portConstraint=eastwest;newEdgeStyle={&quot;edgeStyle&quot;:&quot;elbowEdgeStyle&quot;,&quot;elbow&quot;:&quot;vertical&quot;,&quot;curved&quot;:0,&quot;rounded&quot;:0};" parent="1" vertex="1">
          <mxGeometry x="57" y="60" width="100" height="690" as="geometry" />
        </mxCell>
        <mxCell id="7R4Kz0LJVm2sexOzA-uK-20" value="" style="html=1;points=[];perimeter=orthogonalPerimeter;outlineConnect=0;targetShapes=umlLifeline;portConstraint=eastwest;newEdgeStyle={&quot;edgeStyle&quot;:&quot;elbowEdgeStyle&quot;,&quot;elbow&quot;:&quot;vertical&quot;,&quot;curved&quot;:0,&quot;rounded&quot;:0};" parent="7R4Kz0LJVm2sexOzA-uK-4" vertex="1">
          <mxGeometry x="45" y="340" width="10" height="40" as="geometry" />
        </mxCell>
        <mxCell id="7R4Kz0LJVm2sexOzA-uK-17" value="" style="html=1;points=[];perimeter=orthogonalPerimeter;outlineConnect=0;targetShapes=umlLifeline;portConstraint=eastwest;newEdgeStyle={&quot;edgeStyle&quot;:&quot;elbowEdgeStyle&quot;,&quot;elbow&quot;:&quot;vertical&quot;,&quot;curved&quot;:0,&quot;rounded&quot;:0};" parent="7R4Kz0LJVm2sexOzA-uK-4" vertex="1">
          <mxGeometry x="55" y="230" width="10" height="40" as="geometry" />
        </mxCell>
        <mxCell id="7R4Kz0LJVm2sexOzA-uK-18" value="self cal：ws通知前端展示特定目录结构" style="html=1;align=left;spacingLeft=2;endArrow=block;rounded=0;edgeStyle=orthogonalEdgeStyle;curved=0;rounded=0;" parent="7R4Kz0LJVm2sexOzA-uK-4" source="7R4Kz0LJVm2sexOzA-uK-35" target="7R4Kz0LJVm2sexOzA-uK-17" edge="1">
          <mxGeometry relative="1" as="geometry">
            <mxPoint x="60" y="240" as="sourcePoint" />
            <Array as="points">
              <mxPoint x="90" y="230" />
              <mxPoint x="90" y="255" />
            </Array>
          </mxGeometry>
        </mxCell>
        <mxCell id="7R4Kz0LJVm2sexOzA-uK-35" value="" style="html=1;points=[];perimeter=orthogonalPerimeter;outlineConnect=0;targetShapes=umlLifeline;portConstraint=eastwest;newEdgeStyle={&quot;edgeStyle&quot;:&quot;elbowEdgeStyle&quot;,&quot;elbow&quot;:&quot;vertical&quot;,&quot;curved&quot;:0,&quot;rounded&quot;:0};" parent="7R4Kz0LJVm2sexOzA-uK-4" vertex="1">
          <mxGeometry x="45" y="210" width="10" height="90" as="geometry" />
        </mxCell>
        <mxCell id="k5PXEWsf904mykeDzKS9-13" value="" style="html=1;points=[];perimeter=orthogonalPerimeter;outlineConnect=0;targetShapes=umlLifeline;portConstraint=eastwest;newEdgeStyle={&quot;edgeStyle&quot;:&quot;elbowEdgeStyle&quot;,&quot;elbow&quot;:&quot;vertical&quot;,&quot;curved&quot;:0,&quot;rounded&quot;:0};" parent="7R4Kz0LJVm2sexOzA-uK-4" vertex="1">
          <mxGeometry x="45" y="524" width="10" height="46" as="geometry" />
        </mxCell>
        <mxCell id="k5PXEWsf904mykeDzKS9-14" value="" style="html=1;points=[];perimeter=orthogonalPerimeter;outlineConnect=0;targetShapes=umlLifeline;portConstraint=eastwest;newEdgeStyle={&quot;edgeStyle&quot;:&quot;elbowEdgeStyle&quot;,&quot;elbow&quot;:&quot;vertical&quot;,&quot;curved&quot;:0,&quot;rounded&quot;:0};" parent="7R4Kz0LJVm2sexOzA-uK-4" vertex="1">
          <mxGeometry x="45" y="620" width="10" height="50" as="geometry" />
        </mxCell>
        <mxCell id="7R4Kz0LJVm2sexOzA-uK-6" value="1.1. HTTP查询OTA平台设备是否在线" style="html=1;verticalAlign=bottom;startArrow=oval;endArrow=block;startSize=8;edgeStyle=elbowEdgeStyle;elbow=vertical;curved=0;rounded=0;" parent="1" source="7R4Kz0LJVm2sexOzA-uK-4" target="7R4Kz0LJVm2sexOzA-uK-5" edge="1">
          <mxGeometry x="-0.0214" relative="1" as="geometry">
            <mxPoint x="197" y="130" as="sourcePoint" />
            <Array as="points">
              <mxPoint x="427" y="130" />
              <mxPoint x="217" y="160" />
              <mxPoint x="227" y="130" />
            </Array>
            <mxPoint as="offset" />
          </mxGeometry>
        </mxCell>
        <mxCell id="7R4Kz0LJVm2sexOzA-uK-11" value="" style="html=1;points=[];perimeter=orthogonalPerimeter;outlineConnect=0;targetShapes=umlLifeline;portConstraint=eastwest;newEdgeStyle={&quot;edgeStyle&quot;:&quot;elbowEdgeStyle&quot;,&quot;elbow&quot;:&quot;vertical&quot;,&quot;curved&quot;:0,&quot;rounded&quot;:0};" parent="1" vertex="1">
          <mxGeometry x="772" y="230" width="10" height="50" as="geometry" />
        </mxCell>
        <mxCell id="7R4Kz0LJVm2sexOzA-uK-12" value="2.2 TCP下发请求目录结构指令" style="html=1;verticalAlign=bottom;endArrow=block;edgeStyle=elbowEdgeStyle;elbow=vertical;curved=0;rounded=0;startArrow=none;" parent="1" source="k5PXEWsf904mykeDzKS9-2" target="7R4Kz0LJVm2sexOzA-uK-11" edge="1">
          <mxGeometry x="-0.0902" relative="1" as="geometry">
            <mxPoint x="517" y="230" as="sourcePoint" />
            <Array as="points">
              <mxPoint x="737" y="230" />
              <mxPoint x="707" y="220" />
              <mxPoint x="577" y="240" />
              <mxPoint x="537" y="240" />
              <mxPoint x="577" y="210" />
              <mxPoint x="747" y="200" />
            </Array>
            <mxPoint as="offset" />
          </mxGeometry>
        </mxCell>
        <mxCell id="7R4Kz0LJVm2sexOzA-uK-13" value="2.3 HTTP上报目录结构" style="html=1;verticalAlign=bottom;endArrow=open;dashed=1;endSize=8;edgeStyle=elbowEdgeStyle;elbow=vertical;curved=0;rounded=0;startArrow=none;" parent="1" source="7R4Kz0LJVm2sexOzA-uK-14" edge="1">
          <mxGeometry x="0.5194" relative="1" as="geometry">
            <mxPoint x="507" y="280" as="targetPoint" />
            <Array as="points">
              <mxPoint x="777" y="280" />
              <mxPoint x="677" y="310" />
              <mxPoint x="637" y="280" />
              <mxPoint x="657" y="290" />
              <mxPoint x="687" y="250" />
            </Array>
            <mxPoint as="offset" />
          </mxGeometry>
        </mxCell>
        <mxCell id="7R4Kz0LJVm2sexOzA-uK-15" value="2.4.HTTP Webhook目录结构" style="html=1;verticalAlign=bottom;endArrow=open;dashed=1;endSize=8;edgeStyle=elbowEdgeStyle;elbow=vertical;curved=0;rounded=0;" parent="1" source="7R4Kz0LJVm2sexOzA-uK-14" target="7R4Kz0LJVm2sexOzA-uK-4" edge="1">
          <mxGeometry relative="1" as="geometry">
            <mxPoint x="477" y="280" as="sourcePoint" />
            <mxPoint x="152" y="333" as="targetPoint" />
            <Array as="points">
              <mxPoint x="347" y="270" />
              <mxPoint x="427" y="300" />
              <mxPoint x="337" y="290" />
              <mxPoint x="217" y="280" />
              <mxPoint x="157" y="320" />
              <mxPoint x="357" y="280" />
            </Array>
          </mxGeometry>
        </mxCell>
        <mxCell id="7R4Kz0LJVm2sexOzA-uK-19" value="3.1 HTTP请求文件上传" style="html=1;verticalAlign=bottom;startArrow=oval;endArrow=block;startSize=8;edgeStyle=elbowEdgeStyle;elbow=vertical;curved=0;rounded=0;" parent="1" target="7R4Kz0LJVm2sexOzA-uK-22" edge="1">
          <mxGeometry x="0.0015" relative="1" as="geometry">
            <mxPoint x="116" y="400" as="sourcePoint" />
            <mxPoint x="451" y="400" as="targetPoint" />
            <Array as="points">
              <mxPoint x="186" y="400" />
            </Array>
            <mxPoint as="offset" />
          </mxGeometry>
        </mxCell>
        <mxCell id="7R4Kz0LJVm2sexOzA-uK-26" value="" style="html=1;points=[];perimeter=orthogonalPerimeter;outlineConnect=0;targetShapes=umlLifeline;portConstraint=eastwest;newEdgeStyle={&quot;edgeStyle&quot;:&quot;elbowEdgeStyle&quot;,&quot;elbow&quot;:&quot;vertical&quot;,&quot;curved&quot;:0,&quot;rounded&quot;:0};" parent="1" vertex="1">
          <mxGeometry x="767" y="480" width="10" height="30" as="geometry" />
        </mxCell>
        <mxCell id="7R4Kz0LJVm2sexOzA-uK-27" value="3.2&amp;nbsp; TCP下发ftp文件上传指令" style="html=1;verticalAlign=bottom;endArrow=block;edgeStyle=elbowEdgeStyle;elbow=vertical;curved=0;rounded=0;" parent="1" target="7R4Kz0LJVm2sexOzA-uK-26" edge="1">
          <mxGeometry x="0.0769" y="10" relative="1" as="geometry">
            <mxPoint x="507" y="480" as="sourcePoint" />
            <Array as="points">
              <mxPoint x="567" y="480" />
              <mxPoint x="617" y="470" />
              <mxPoint x="572" y="550" />
              <mxPoint x="742" y="540" />
            </Array>
            <mxPoint as="offset" />
          </mxGeometry>
        </mxCell>
        <mxCell id="k5PXEWsf904mykeDzKS9-1" value="1.2 HTTP在线状态响应" style="html=1;verticalAlign=bottom;endArrow=open;dashed=1;endSize=8;edgeStyle=elbowEdgeStyle;elbow=vertical;curved=0;rounded=0;" parent="1" target="7R4Kz0LJVm2sexOzA-uK-4" edge="1">
          <mxGeometry relative="1" as="geometry">
            <mxPoint x="227" y="180" as="targetPoint" />
            <Array as="points">
              <mxPoint x="404" y="180" />
              <mxPoint x="364" y="150" />
              <mxPoint x="384" y="160" />
              <mxPoint x="414" y="120" />
            </Array>
            <mxPoint as="offset" />
            <mxPoint x="499" y="180" as="sourcePoint" />
          </mxGeometry>
        </mxCell>
        <mxCell id="k5PXEWsf904mykeDzKS9-4" value="2.1. HTTP查询指定目录结构" style="html=1;verticalAlign=bottom;startArrow=oval;endArrow=block;startSize=8;edgeStyle=elbowEdgeStyle;elbow=vertical;curved=0;rounded=0;" parent="1" edge="1">
          <mxGeometry x="0.0872" relative="1" as="geometry">
            <mxPoint x="105" y="220" as="sourcePoint" />
            <Array as="points">
              <mxPoint x="426" y="220" />
              <mxPoint x="216" y="250" />
              <mxPoint x="226" y="220" />
            </Array>
            <mxPoint as="offset" />
            <mxPoint x="495" y="220" as="targetPoint" />
          </mxGeometry>
        </mxCell>
        <mxCell id="7R4Kz0LJVm2sexOzA-uK-14" value="" style="html=1;points=[];perimeter=orthogonalPerimeter;outlineConnect=0;targetShapes=umlLifeline;portConstraint=eastwest;newEdgeStyle={&quot;edgeStyle&quot;:&quot;elbowEdgeStyle&quot;,&quot;elbow&quot;:&quot;vertical&quot;,&quot;curved&quot;:0,&quot;rounded&quot;:0};" parent="1" vertex="1">
          <mxGeometry x="496" y="270" width="10" height="20" as="geometry" />
        </mxCell>
        <mxCell id="k5PXEWsf904mykeDzKS9-6" value="FTP Server" style="shape=umlLifeline;perimeter=lifelinePerimeter;whiteSpace=wrap;html=1;container=1;dropTarget=0;collapsible=0;recursiveResize=0;outlineConnect=0;portConstraint=eastwest;newEdgeStyle={&quot;edgeStyle&quot;:&quot;elbowEdgeStyle&quot;,&quot;elbow&quot;:&quot;vertical&quot;,&quot;curved&quot;:0,&quot;rounded&quot;:0};" parent="1" vertex="1">
          <mxGeometry x="900" y="60" width="100" height="690" as="geometry" />
        </mxCell>
        <mxCell id="k5PXEWsf904mykeDzKS9-10" value="" style="html=1;points=[];perimeter=orthogonalPerimeter;outlineConnect=0;targetShapes=umlLifeline;portConstraint=eastwest;newEdgeStyle={&quot;edgeStyle&quot;:&quot;elbowEdgeStyle&quot;,&quot;elbow&quot;:&quot;vertical&quot;,&quot;curved&quot;:0,&quot;rounded&quot;:0};" parent="k5PXEWsf904mykeDzKS9-6" vertex="1">
          <mxGeometry x="45" y="520" width="10" height="50" as="geometry" />
        </mxCell>
        <mxCell id="k5PXEWsf904mykeDzKS9-15" value="" style="html=1;points=[];perimeter=orthogonalPerimeter;outlineConnect=0;targetShapes=umlLifeline;portConstraint=eastwest;newEdgeStyle={&quot;edgeStyle&quot;:&quot;elbowEdgeStyle&quot;,&quot;elbow&quot;:&quot;vertical&quot;,&quot;curved&quot;:0,&quot;rounded&quot;:0};" parent="k5PXEWsf904mykeDzKS9-6" vertex="1">
          <mxGeometry x="45" y="616" width="10" height="54" as="geometry" />
        </mxCell>
        <mxCell id="k5PXEWsf904mykeDzKS9-7" value="3.3 压缩上传FTP" style="html=1;verticalAlign=bottom;endArrow=block;edgeStyle=elbowEdgeStyle;elbow=vertical;curved=0;rounded=0;" parent="1" edge="1">
          <mxGeometry x="0.0769" y="10" relative="1" as="geometry">
            <mxPoint x="777" y="508.82" as="sourcePoint" />
            <Array as="points">
              <mxPoint x="837" y="508.82" />
              <mxPoint x="887" y="498.82" />
              <mxPoint x="842" y="578.82" />
              <mxPoint x="1012" y="568.82" />
            </Array>
            <mxPoint as="offset" />
            <mxPoint x="950" y="509" as="targetPoint" />
          </mxGeometry>
        </mxCell>
        <mxCell id="k5PXEWsf904mykeDzKS9-8" value="4.1 请求ftp文件列表" style="html=1;verticalAlign=bottom;startArrow=oval;endArrow=block;startSize=8;edgeStyle=elbowEdgeStyle;elbow=vertical;curved=0;rounded=0;" parent="1" target="k5PXEWsf904mykeDzKS9-10" edge="1">
          <mxGeometry x="-0.4012" y="3" relative="1" as="geometry">
            <mxPoint x="110" y="583" as="sourcePoint" />
            <mxPoint x="940" y="590" as="targetPoint" />
            <Array as="points">
              <mxPoint x="180" y="583" />
            </Array>
            <mxPoint x="1" as="offset" />
          </mxGeometry>
        </mxCell>
        <mxCell id="k5PXEWsf904mykeDzKS9-9" value="4.2 返回文件列表" style="html=1;verticalAlign=bottom;endArrow=open;dashed=1;endSize=8;edgeStyle=elbowEdgeStyle;elbow=vertical;curved=0;rounded=0;startArrow=none;" parent="1" target="7R4Kz0LJVm2sexOzA-uK-4" edge="1">
          <mxGeometry x="0.5704" y="-10" relative="1" as="geometry">
            <mxPoint x="608" y="630" as="targetPoint" />
            <Array as="points">
              <mxPoint x="947" y="630" />
              <mxPoint x="778" y="660" />
              <mxPoint x="738" y="630" />
              <mxPoint x="758" y="640" />
              <mxPoint x="788" y="600" />
            </Array>
            <mxPoint as="offset" />
            <mxPoint x="607" y="630" as="sourcePoint" />
          </mxGeometry>
        </mxCell>
        <mxCell id="k5PXEWsf904mykeDzKS9-12" value="4.3 下载文件" style="html=1;verticalAlign=bottom;startArrow=oval;endArrow=block;startSize=8;edgeStyle=elbowEdgeStyle;elbow=vertical;curved=0;rounded=0;" parent="1" edge="1">
          <mxGeometry x="-0.4012" y="3" relative="1" as="geometry">
            <mxPoint x="112.5" y="680" as="sourcePoint" />
            <mxPoint x="947.5" y="680" as="targetPoint" />
            <Array as="points">
              <mxPoint x="182.5" y="680" />
            </Array>
            <mxPoint x="1" as="offset" />
          </mxGeometry>
        </mxCell>
        <mxCell id="k5PXEWsf904mykeDzKS9-16" value="4.4 文件数据" style="html=1;verticalAlign=bottom;endArrow=open;dashed=1;endSize=8;edgeStyle=elbowEdgeStyle;elbow=vertical;curved=0;rounded=0;startArrow=none;" parent="1" edge="1">
          <mxGeometry x="0.5704" y="-10" relative="1" as="geometry">
            <mxPoint x="109.5" y="730" as="targetPoint" />
            <Array as="points">
              <mxPoint x="950.5" y="730" />
              <mxPoint x="781.5" y="760" />
              <mxPoint x="741.5" y="730" />
              <mxPoint x="761.5" y="740" />
              <mxPoint x="791.5" y="700" />
            </Array>
            <mxPoint as="offset" />
            <mxPoint x="610.5" y="730" as="sourcePoint" />
          </mxGeometry>
        </mxCell>
      </root>
    </mxGraphModel>
  </diagram>
</mxfile>
